<svg width="320" height="320" viewBox="0 0 320 320" xmlns="http://www.w3.org/2000/svg" shape-rendering="crispEdges"><rect width="100%" height="100%" fill="#e9ded3" /><rect width="40" height="10" x="140" y="80" fill="#75a5fb" /><rect width="80" height="10" x="120" y="90" fill="#75a5fb" /><rect width="140" height="10" x="90" y="100" fill="#75a5fb" /><rect width="140" height="10" x="90" y="110" fill="#75a5fb" /><rect width="140" height="10" x="90" y="120" fill="#75a5fb" /><rect width="160" height="10" x="80" y="130" fill="#75a5fb" /><rect width="160" height="10" x="80" y="140" fill="#75a5fb" /><rect width="160" height="10" x="80" y="150" fill="#75a5fb" /><rect width="160" height="10" x="80" y="160" fill="#75a5fb" /><rect width="140" height="10" x="90" y="170" fill="#75a5fb" /><rect width="120" height="10" x="100" y="180" fill="#75a5fb" /><rect width="140" height="10" x="90" y="190" fill="#75a5fb" /><rect width="160" height="10" x="80" y="200" fill="#75a5fb" /><rect width="160" height="10" x="80" y="210" fill="#75a5fb" /><rect width="180" height="10" x="70" y="220" fill="#75a5fb" /><rect width="180" height="10" x="70" y="230" fill="#75a5fb" /><rect width="200" height="10" x="60" y="240" fill="#75a5fb" /><rect width="200" height="10" x="60" y="250" fill="#75a5fb" /><rect width="200" height="10" x="60" y="260" fill="#75a5fb" /><rect width="200" height="10" x="60" y="270" fill="#75a5fb" /><rect width="200" height="10" x="60" y="280" fill="#75a5fb" /><rect width="200" height="10" x="60" y="290" fill="#75a5fb" /><rect width="180" height="10" x="70" y="300" fill="#75a5fb" /><rect width="160" height="10" x="80" y="310" fill="#75a5fb" /><rect width="10" height="10" x="90" y="190" fill="#000000" /><rect width="10" height="10" x="100" y="190" fill="#da9100" /><rect width="10" height="10" x="210" y="190" fill="#cf009e" /><rect width="10" height="10" x="220" y="190" fill="#000000" /><rect width="10" height="10" x="80" y="200" fill="#b400ec" /><rect width="10" height="10" x="90" y="200" fill="#000000" /><rect width="20" height="10" x="100" y="200" fill="#da9100" /><rect width="20" height="10" x="200" y="200" fill="#cf009e" /><rect width="10" height="10" x="220" y="200" fill="#000000" /><rect width="10" height="10" x="230" y="200" fill="#00ffc2" /><rect width="20" height="10" x="70" y="210" fill="#b400ec" /><rect width="10" height="10" x="90" y="210" fill="#000000" /><rect width="10" height="10" x="100" y="210" fill="#da9100" /><rect width="20" height="10" x="110" y="210" fill="#ffaa00" /><rect width="10" height="10" x="130" y="210" fill="#000000" /><rect width="10" height="10" x="180" y="210" fill="#000000" /><rect width="20" height="10" x="190" y="210" fill="#cf009e" /><rect width="10" height="10" x="210" y="210" fill="#ff00c2" /><rect width="30" height="10" x="220" y="210" fill="#000000" /><rect width="10" height="10" x="60" y="220" fill="#000000" /><rect width="10" height="10" x="70" y="220" fill="#b400ec" /><rect width="10" height="10" x="80" y="220" fill="#c200ff" /><rect width="10" height="10" x="90" y="220" fill="#000000" /><rect width="30" height="10" x="100" y="220" fill="#ffaa00" /><rect width="10" height="10" x="130" y="220" fill="#000000" /><rect width="40" height="10" x="140" y="220" fill="#ca0000" /><rect width="20" height="10" x="180" y="220" fill="#000000" /><rect width="10" height="10" x="200" y="220" fill="#cf009e" /><rect width="10" height="10" x="210" y="220" fill="#ff00c2" /><rect width="10" height="10" x="220" y="220" fill="#000000" /><rect width="20" height="10" x="230" y="220" fill="#00ffc2" /><rect width="10" height="10" x="250" y="220" fill="#000000" /><rect width="20" height="10" x="50" y="230" fill="#620a00" /><rect width="10" height="10" x="70" y="230" fill="#000000" /><rect width="10" height="10" x="80" y="230" fill="#c200ff" /><rect width="50" height="10" x="90" y="230" fill="#000000" /><rect width="10" height="10" x="140" y="230" fill="#ca0000" /><rect width="30" height="10" x="150" y="230" fill="#ff0000" /><rect width="10" height="10" x="180" y="230" fill="#000000" /><rect width="10" height="10" x="190" y="230" fill="#18ff00" /><rect width="10" height="10" x="200" y="230" fill="#000000" /><rect width="10" height="10" x="210" y="230" fill="#ff00c2" /><rect width="10" height="10" x="220" y="230" fill="#000000" /><rect width="20" height="10" x="230" y="230" fill="#00ffc2" /><rect width="10" height="10" x="250" y="230" fill="#000000" /><rect width="10" height="10" x="260" y="230" fill="#18ff00" /><rect width="10" height="10" x="50" y="240" fill="#620a00" /><rect width="20" height="10" x="60" y="240" fill="#700b00" /><rect width="20" height="10" x="80" y="240" fill="#000000" /><rect width="30" height="10" x="100" y="240" fill="#aaff00" /><rect width="10" height="10" x="130" y="240" fill="#000000" /><rect width="40" height="10" x="140" y="240" fill="#ff0000" /><rect width="10" height="10" x="180" y="240" fill="#000000" /><rect width="20" height="10" x="190" y="240" fill="#18ff00" /><rect width="50" height="10" x="210" y="240" fill="#000000" /><rect width="10" height="10" x="260" y="240" fill="#18ff00" /><rect width="20" height="10" x="40" y="250" fill="#620a00" /><rect width="20" height="10" x="60" y="250" fill="#700b00" /><rect width="20" height="10" x="80" y="250" fill="#000000" /><rect width="30" height="10" x="100" y="250" fill="#aaff00" /><rect width="10" height="10" x="130" y="250" fill="#000000" /><rect width="10" height="10" x="140" y="250" fill="#ff0000" /><rect width="40" height="10" x="150" y="250" fill="#000000" /><rect width="20" height="10" x="190" y="250" fill="#18ff00" /><rect width="30" height="10" x="210" y="250" fill="#000000" /><rect width="10" height="10" x="240" y="250" fill="#ffaa00" /><rect width="10" height="10" x="250" y="250" fill="#000000" /><rect width="20" height="10" x="260" y="250" fill="#18ff00" /><rect width="60" height="10" x="40" y="260" fill="#000000" /><rect width="30" height="10" x="100" y="260" fill="#aaff00" /><rect width="20" height="10" x="130" y="260" fill="#000000" /><rect width="10" height="10" x="150" y="260" fill="#0079ff" /><rect width="10" height="10" x="160" y="260" fill="#000000" /><rect width="10" height="10" x="170" y="260" fill="#c200ff" /><rect width="10" height="10" x="180" y="260" fill="#000000" /><rect width="10" height="10" x="190" y="260" fill="#18ff00" /><rect width="10" height="10" x="200" y="260" fill="#000000" /><rect width="10" height="10" x="210" y="260" fill="#700b00" /><rect width="20" height="10" x="220" y="260" fill="#000000" /><rect width="10" height="10" x="240" y="260" fill="#ffaa00" /><rect width="10" height="10" x="250" y="260" fill="#000000" /><rect width="20" height="10" x="260" y="260" fill="#18ff00" /><rect width="10" height="10" x="40" y="270" fill="#00eab2" /><rect width="10" height="10" x="50" y="270" fill="#000000" /><rect width="10" height="10" x="60" y="270" fill="#ff00c2" /><rect width="40" height="10" x="70" y="270" fill="#000000" /><rect width="20" height="10" x="110" y="270" fill="#aaff00" /><rect width="10" height="10" x="130" y="270" fill="#000000" /><rect width="20" height="10" x="140" y="270" fill="#0079ff" /><rect width="10" height="10" x="160" y="270" fill="#000000" /><rect width="10" height="10" x="170" y="270" fill="#c200ff" /><rect width="10" height="10" x="180" y="270" fill="#000000" /><rect width="10" height="10" x="190" y="270" fill="#18ff00" /><rect width="10" height="10" x="200" y="270" fill="#000000" /><rect width="10" height="10" x="210" y="270" fill="#700b00" /><rect width="40" height="10" x="220" y="270" fill="#000000" /><rect width="20" height="10" x="260" y="270" fill="#18ff00" /><rect width="20" height="10" x="40" y="280" fill="#00eab2" /><rect width="40" height="10" x="60" y="280" fill="#000000" /><rect width="10" height="10" x="100" y="280" fill="#ffdb00" /><rect width="10" height="10" x="110" y="280" fill="#000000" /><rect width="10" height="10" x="120" y="280" fill="#aaff00" /><rect width="10" height="10" x="130" y="280" fill="#000000" /><rect width="20" height="10" x="140" y="280" fill="#0079ff" /><rect width="10" height="10" x="160" y="280" fill="#000000" /><rect width="10" height="10" x="170" y="280" fill="#c200ff" /><rect width="20" height="10" x="180" y="280" fill="#000000" /><rect width="20" height="10" x="200" y="280" fill="#700b00" /><rect width="30" height="10" x="220" y="280" fill="#000000" /><rect width="30" height="10" x="250" y="280" fill="#18ff00" /><rect width="10" height="10" x="40" y="290" fill="#00eab2" /><rect width="20" height="10" x="50" y="290" fill="#00ffc2" /><rect width="30" height="10" x="70" y="290" fill="#000000" /><rect width="20" height="10" x="100" y="290" fill="#ffdb00" /><rect width="20" height="10" x="120" y="290" fill="#000000" /><rect width="10" height="10" x="140" y="290" fill="#0079ff" /><rect width="10" height="10" x="150" y="290" fill="#000000" /><rect width="20" height="10" x="160" y="290" fill="#c200ff" /><rect width="20" height="10" x="180" y="290" fill="#000000" /><rect width="20" height="10" x="200" y="290" fill="#700b00" /><rect width="30" height="10" x="220" y="290" fill="#000000" /><rect width="30" height="10" x="250" y="290" fill="#18ff00" /><rect width="10" height="10" x="40" y="300" fill="#00eab2" /><rect width="10" height="10" x="50" y="300" fill="#00ffc2" /><rect width="40" height="10" x="60" y="300" fill="#000000" /><rect width="30" height="10" x="100" y="300" fill="#ffdb00" /><rect width="10" height="10" x="130" y="300" fill="#000000" /><rect width="10" height="10" x="140" y="300" fill="#0079ff" /><rect width="10" height="10" x="150" y="300" fill="#000000" /><rect width="20" height="10" x="160" y="300" fill="#c200ff" /><rect width="10" height="10" x="180" y="300" fill="#000000" /><rect width="30" height="10" x="190" y="300" fill="#700b00" /><rect width="60" height="10" x="220" y="300" fill="#000000" /><rect width="10" height="10" x="40" y="310" fill="#00eab2" /><rect width="10" height="10" x="50" y="310" fill="#000000" /><rect width="10" height="10" x="60" y="310" fill="#b400ec" /><rect width="10" height="10" x="80" y="310" fill="#b400ec" /><rect width="10" height="10" x="90" y="310" fill="#000000" /><rect width="30" height="10" x="100" y="310" fill="#ffdb00" /><rect width="10" height="10" x="130" y="310" fill="#000000" /><rect width="10" height="10" x="140" y="310" fill="#0079ff" /><rect width="10" height="10" x="150" y="310" fill="#000000" /><rect width="20" height="10" x="160" y="310" fill="#c200ff" /><rect width="10" height="10" x="180" y="310" fill="#000000" /><rect width="30" height="10" x="190" y="310" fill="#700b00" /><rect width="10" height="10" x="220" y="310" fill="#000000" /><rect width="10" height="10" x="230" y="310" fill="#c200ff" /><rect width="30" height="10" x="250" y="310" fill="#ffaa00" /><rect width="10" height="10" x="100" y="100" fill="#412d23" /><rect width="10" height="10" x="210" y="100" fill="#412d23" /><rect width="10" height="10" x="90" y="110" fill="#412d23" /><rect width="20" height="10" x="110" y="110" fill="#412d23" /><rect width="20" height="10" x="190" y="110" fill="#412d23" /><rect width="10" height="10" x="220" y="110" fill="#412d23" /><rect width="20" height="10" x="130" y="120" fill="#412d23" /><rect width="20" height="10" x="170" y="120" fill="#412d23" /><rect width="10" height="10" x="110" y="130" fill="#bebebe" /><rect width="10" height="10" x="120" y="130" fill="#4e302a" /><rect width="10" height="10" x="130" y="130" fill="#000000" /><rect width="10" height="10" x="180" y="130" fill="#4e302a" /><rect width="10" height="10" x="190" y="130" fill="#000000" /><rect width="10" height="10" x="200" y="130" fill="#bebebe" /><rect width="10" height="10" x="110" y="140" fill="#ffffff" /><rect width="20" height="10" x="120" y="140" fill="#663931" /><rect width="20" height="10" x="180" y="140" fill="#663931" /><rect width="10" height="10" x="200" y="140" fill="#ffffff" /><rect width="10" height="10" x="90" y="150" fill="#000000" /><rect width="10" height="10" x="150" y="150" fill="#68493a" /><rect width="10" height="10" x="220" y="150" fill="#000000" /><rect width="10" height="10" x="90" y="160" fill="#000000" /><rect width="10" height="10" x="140" y="160" fill="#68493a" /><rect width="20" height="10" x="150" y="160" fill="#49352b" /><rect width="10" height="10" x="220" y="160" fill="#000000" /><rect width="10" height="10" x="90" y="170" fill="#000000" /><rect width="10" height="10" x="220" y="170" fill="#000000" /><rect width="10" height="10" x="100" y="180" fill="#000000" /><rect width="30" height="10" x="140" y="180" fill="#271d19" /><rect width="10" height="10" x="210" y="180" fill="#000000" /><rect width="10" height="10" x="110" y="190" fill="#000000" /><rect width="10" height="10" x="150" y="190" fill="#68493a" /><rect width="10" height="10" x="170" y="190" fill="#271d19" /><rect width="10" height="10" x="200" y="190" fill="#000000" /><rect width="20" height="10" x="120" y="200" fill="#000000" /><rect width="20" height="10" x="180" y="200" fill="#000000" /><rect width="40" height="10" x="140" y="210" fill="#000000" /><rect width="40" height="10" x="90" y="40" fill="#ffffff" /><rect width="40" height="10" x="190" y="40" fill="#ffffff" /><rect width="10" height="10" x="80" y="50" fill="#ffffff" /><rect width="30" height="10" x="90" y="50" fill="#cbbaac" /><rect width="20" height="10" x="120" y="50" fill="#ffffff" /><rect width="20" height="10" x="180" y="50" fill="#ffffff" /><rect width="30" height="10" x="200" y="50" fill="#cbbaac" /><rect width="10" height="10" x="230" y="50" fill="#ffffff" /><rect width="10" height="10" x="70" y="60" fill="#ffffff" /><rect width="10" height="10" x="80" y="60" fill="#cbbaac" /><rect width="30" height="10" x="90" y="60" fill="#ffffff" /><rect width="10" height="10" x="120" y="60" fill="#cbbaac" /><rect width="20" height="10" x="130" y="60" fill="#ffffff" /><rect width="20" height="10" x="170" y="60" fill="#ffffff" /><rect width="10" height="10" x="190" y="60" fill="#cbbaac" /><rect width="30" height="10" x="200" y="60" fill="#ffffff" /><rect width="10" height="10" x="230" y="60" fill="#cbbaac" /><rect width="10" height="10" x="240" y="60" fill="#ffffff" /><rect width="10" height="10" x="60" y="70" fill="#ffffff" /><rect width="10" height="10" x="70" y="70" fill="#cbbaac" /><rect width="20" height="10" x="80" y="70" fill="#ffffff" /><rect width="20" height="10" x="100" y="70" fill="#cbbaac" /><rect width="10" height="10" x="120" y="70" fill="#ffffff" /><rect width="10" height="10" x="130" y="70" fill="#cbbaac" /><rect width="40" height="10" x="140" y="70" fill="#ffffff" /><rect width="10" height="10" x="180" y="70" fill="#cbbaac" /><rect width="10" height="10" x="190" y="70" fill="#ffffff" /><rect width="20" height="10" x="200" y="70" fill="#cbbaac" /><rect width="20" height="10" x="220" y="70" fill="#ffffff" /><rect width="10" height="10" x="240" y="70" fill="#cbbaac" /><rect width="10" height="10" x="250" y="70" fill="#ffffff" /><rect width="30" height="10" x="60" y="80" fill="#ffffff" /><rect width="10" height="10" x="90" y="80" fill="#cbbaac" /><rect width="20" height="10" x="100" y="80" fill="#ffffff" /><rect width="10" height="10" x="120" y="80" fill="#cbbaac" /><rect width="10" height="10" x="130" y="80" fill="#ffffff" /><rect width="10" height="10" x="140" y="80" fill="#cbbaac" /><rect width="20" height="10" x="150" y="80" fill="#ffffff" /><rect width="10" height="10" x="170" y="80" fill="#cbbaac" /><rect width="10" height="10" x="180" y="80" fill="#ffffff" /><rect width="10" height="10" x="190" y="80" fill="#cbbaac" /><rect width="20" height="10" x="200" y="80" fill="#ffffff" /><rect width="10" height="10" x="220" y="80" fill="#cbbaac" /><rect width="30" height="10" x="230" y="80" fill="#ffffff" /><rect width="10" height="10" x="70" y="90" fill="#ffffff" /><rect width="10" height="10" x="80" y="90" fill="#cbbaac" /><rect width="60" height="10" x="90" y="90" fill="#ffffff" /><rect width="20" height="10" x="150" y="90" fill="#cbbaac" /><rect width="60" height="10" x="170" y="90" fill="#ffffff" /><rect width="10" height="10" x="230" y="90" fill="#cbbaac" /><rect width="10" height="10" x="240" y="90" fill="#ffffff" /><rect width="30" height="10" x="80" y="100" fill="#ffffff" /><rect width="30" height="10" x="210" y="100" fill="#ffffff" /><rect width="10" height="10" x="90" y="110" fill="#ffffff" /><rect width="30" height="10" x="100" y="110" fill="#000000" /><rect width="10" height="10" x="130" y="110" fill="#ffffff" /><rect width="10" height="10" x="140" y="110" fill="#000000" /><rect width="40" height="10" x="170" y="110" fill="#000000" /><rect width="20" height="10" x="210" y="110" fill="#ffffff" /><rect width="20" height="10" x="70" y="120" fill="#000000" /><rect width="10" height="10" x="90" y="120" fill="#ffffff" /><rect width="20" height="10" x="100" y="120" fill="#000000" /><rect width="10" height="10" x="120" y="120" fill="#ffffff" /><rect width="20" height="10" x="130" y="120" fill="#000000" /><rect width="30" height="10" x="170" y="120" fill="#000000" /><rect width="10" height="10" x="200" y="120" fill="#ffffff" /><rect width="10" height="10" x="210" y="120" fill="#000000" /><rect width="10" height="10" x="220" y="120" fill="#ffffff" /><rect width="20" height="10" x="230" y="120" fill="#000000" /><rect width="10" height="10" x="70" y="130" fill="#000000" /><rect width="140" height="10" x="90" y="130" fill="#000000" /><rect width="10" height="10" x="240" y="130" fill="#000000" /><rect width="40" height="10" x="100" y="140" fill="#000000" /><rect width="40" height="10" x="180" y="140" fill="#000000" /><rect width="20" height="10" x="110" y="150" fill="#000000" /><rect width="20" height="10" x="190" y="150" fill="#000000" /><rect width="10" height="10" x="70" y="160" fill="#c4b1a2" /><rect width="10" height="10" x="240" y="160" fill="#c4b1a2" /><rect width="10" height="10" x="130" y="200" fill="#ffffff" /><rect width="10" height="10" x="140" y="200" fill="#cbbaac" /><rect width="10" height="10" x="150" y="200" fill="#ffffff" /><rect width="10" height="10" x="160" y="200" fill="#cbbaac" /><rect width="10" height="10" x="170" y="200" fill="#ffffff" /><rect width="10" height="10" x="180" y="200" fill="#cbbaac" /><rect width="10" height="10" x="130" y="210" fill="#cbbaac" /><rect width="10" height="10" x="140" y="210" fill="#ffffff" /><rect width="10" height="10" x="150" y="210" fill="#cbbaac" /><rect width="10" height="10" x="160" y="210" fill="#ffffff" /><rect width="10" height="10" x="170" y="210" fill="#cbbaac" /><rect width="10" height="10" x="180" y="210" fill="#ffffff" /><rect width="10" height="10" x="140" y="220" fill="#cbbaac" /><rect width="10" height="10" x="150" y="220" fill="#ffffff" /><rect width="10" height="10" x="160" y="220" fill="#cbbaac" /><rect width="10" height="10" x="170" y="220" fill="#ffffff" /><rect width="10" height="10" x="150" y="230" fill="#cbbaac" /><rect width="10" height="10" x="160" y="230" fill="#ffffff" /></svg>