<svg xmlns="http://www.w3.org/2000/svg" viewBox="0 0 433.77 159.16"><defs><style>.cls-1{fill:#f58634;}.cls-1,.cls-2,.cls-3,.cls-4,.cls-5{fill-rule:evenodd;}.cls-2{fill:#00afef;}.cls-3{fill:#9dd3af;}.cls-4{fill:#ed3237;}.cls-5{fill:#a8518a;}.cls-6{fill:#fff;}</style></defs><g id="Capa_2" data-name="Capa 2"><g id="Capa_1-2" data-name="Capa 1"><path d="M0,159.16V72.4H43.38V83.25H54.22V72.4H86.75v86.76Zm32.53-10.85V126.62H43.38v10.85H54.22V126.62H65.07v21.69H75.91V83.25H65.07V94.09H54.22v10.85H43.38V94.09H32.53V83.25H10.84v65.06ZM97.6,159.16V148.31H86.75V83.25H97.6V72.4h65.07V83.25h10.84v65.06H162.67v10.85Zm54.22-10.85V137.47h10.85V94.09H151.82V83.25H108.44V94.09H97.6v43.38h10.84v10.84Zm-32.53-10.84V94.09H141v43.38Zm65.06,21.69V148.31H173.51V104.94h43.38V72.4h43.37v75.91H249.42v10.85Zm54.23-10.85V137.47h10.84V83.25H227.73v54.22H206V115.78H184.35v21.69H195.2v10.84Zm32.53,10.85V148.31H260.26V83.25h10.85V72.4h65.06V83.25H347v65.06H336.17v10.85Zm54.22-10.85V137.47h10.84V94.09H325.33V83.25H282V94.09H271.11v43.38H282v10.84ZM292.8,137.47V94.09h21.69v43.38Zm65.06,21.69V148.31H347V83.25h10.84V72.4h65.07V83.25h10.84v65.06H422.93v10.85Zm54.22-10.85V137.47h10.85V115.78H401.24V104.94H379.55V94.09h21.69v10.85h21.69V94.09H412.08V83.25H368.71V94.09H357.86v21.69h21.69v10.84h21.69v10.85H379.55V126.62H357.86v10.85h10.85v10.84Z"/><polygon class="cls-1" points="43.38 104.94 43.38 94.09 32.53 94.09 32.53 83.25 10.84 83.25 10.84 148.31 32.53 148.31 32.53 126.62 43.38 126.62 43.38 137.47 54.22 137.47 54.22 126.62 65.07 126.62 65.07 148.31 75.91 148.31 75.91 83.25 65.07 83.25 65.07 94.09 54.22 94.09 54.22 104.94 43.38 104.94 43.38 104.94"/><path class="cls-2" d="M97.6,94.09v43.38h10.84v10.84h43.38V137.47h10.85V94.09H151.82V83.25H108.44V94.09Zm43.38,0v43.38H119.29V94.09Z"/><polygon class="cls-3" points="227.73 83.25 227.73 137.47 206.04 137.47 206.04 115.78 184.35 115.78 184.35 137.47 195.2 137.47 195.2 148.31 238.57 148.31 238.57 137.47 249.42 137.47 249.42 83.25 227.73 83.25 227.73 83.25"/><path class="cls-4" d="M282,83.25V94.09H271.11v43.38H282v10.84h43.38V137.47h10.84V94.09H325.33V83.25ZM292.8,94.09h21.69v43.38H292.8V94.09Z"/><path class="cls-5" d="M379.55,126.62h21.69v10.85H379.55V126.62Zm21.69-21.68H379.55V94.09h21.69v10.85ZM368.71,83.25V94.09H357.86v21.69h21.69v10.84H357.86v10.85h10.85v10.84h43.37V137.47h10.85V115.78H401.24V104.94h21.69V94.09H412.08V83.25Z"/><polygon class="cls-6" points="230.45 64.62 230.45 74.79 220.28 74.79 220.28 84.95 210.11 84.95 201.99 84.95 201.99 90.16 177.56 90.16 177.56 84.95 169.44 84.95 159.27 84.95 159.27 74.79 149.1 74.79 149.1 64.62 149.1 54.45 159.27 54.45 159.27 44.28 169.44 44.28 169.44 34.12 159.27 34.12 159.27 23.95 149.11 23.95 149.11 13.78 149.11 3.62 159.27 3.62 169.44 3.62 169.44 13.78 179.61 13.78 179.61 23.95 189.78 23.95 199.94 23.95 199.94 13.78 210.11 13.78 210.11 3.62 220.28 3.62 230.45 3.62 230.45 13.78 230.45 23.95 220.28 23.95 220.28 34.12 210.11 34.12 210.11 23.95 220.28 23.95 210.11 13.78 210.11 23.95 199.94 23.95 213.83 20.1 210.11 34.12 210.11 44.28 220.28 44.28 220.28 54.45 230.45 54.45 230.45 64.62 230.45 64.62"/><path class="cls-6" d="M234.06,64.62V78.4H223.9V88.57H205.61v5.21H173.94V88.57H155.66V78.4H145.49V50.84h10.17V40.67h10.17V37.73H155.66V27.57H145.49V0h27.57V10.17h10.16V20.34h13.11V10.17H206.5V0h27.56V27.57H223.9V37.73H213.73v2.94H223.9V50.84h10.16V64.62Zm-7.23,6.55V58.07H216.67V47.9H206.5V27.57H173.42l2.57-.72V17.4H165.83V7.23H152.72V20.34h10.17V30.5h10.17V47.9H162.89V58.07H152.72v13.1h10.17V81.34h18.28v5.21h17.21V81.34h18.29V71.17ZM203.56,17.4v1.81l2.94-.82v-1ZM213.73,7.23v5.06l3.21,3.21,2-.55-.53,2,3.38,3.38h5.05V7.23Zm2.94,23.27V27.57h-1.09l-.78,2.93Z"/><path d="M230.45,64.62V74.79H220.28V85H202v5.21H177.56V85H159.27V74.79H149.11V54.45h10.16V44.28h10.17V34.12H159.27V24h10.17V3.61H149.11V24h10.16V13.78h20.34V24l-3.84,3.84V24h24.17V13.78h10.17V3.61h20.34V24H220.28V13.78H210.11V34.12h10.17V24H210.11V34.12h0V44.28h10.17V54.45h10.17V64.62ZM187.73,86.06V76.84h-6.07v9.22Zm10.17-9.22h-6.07v9.22h6.07V76.84Zm2-32.56V54.45h10.17V44.28Zm-30.5,0V54.45h10.17V44.28Z"/></g></g></svg>